<?xml version="1.0" encoding="UTF-8"?>
<svg id="Layer_2" data-name="Layer 2" xmlns="http://www.w3.org/2000/svg" viewBox="0 0 170.76 119.68">
  <defs>
    <style>
      .cls-1 {
        fill: none;
        stroke-miterlimit: 10;
      }

      .cls-1, .cls-2 {
        stroke: #fff;
      }

      .cls-3 {
        fill: #be1e2d;
      }

      .cls-4 {
        stroke: #be1e2d;
      }

      .cls-4, .cls-2 {
        fill: #231f20;
      }
    </style>
  </defs>
  <g id="Layer_1-2" data-name="Layer 1">
    <g>
      <path class="cls-1" d="M92.36,26.15s-20.39,39.42-31.6,61.1c-.39.75-.76,1.47-1.13,2.18-1.59,3.74-3.38,7.74-6.07,11.74-9.85-18-17.92-36-27.86-53.9l-1.3-2.51c-5.53-10.69-9.63-18.62-9.63-18.62h6.67c11.51.03,24.06.03,35.73,0,2.19,0,4.42,0,6.7,0,45.46,0,106.07,0,106.07,0l-38.79,75L92.36,26.15"/>
      <text/>
      <g>
        <path class="cls-4" d="M28.21,7.08c-1.52-3.9-5.1-3.9-7.79-2.9-.9,1-1.79,4-.9,6,2.69,1,4.48,0,5.37-3-.9,2-.9,5-.9,7-.9-2-3.58-5-5.37-2-.9,2-.9,5,1.79,6h-5.37c2.69-4,1.79-9,2.69-14h-1.79c4.48-1,8.06,1,12.54-1,0,1,0,3-.04,3.79l-.24.1Z"/>
        <path class="cls-4" d="M26.04,17.78c2.44-1.6,2.44-5.6,2.44-8.6h-.9c.9,0,2.69-1,3.58-1,2.69,3-4.48,6-1.24,9.6h-3.89ZM31.77,5.88c-1.49.3-2.39.3-1.49-1.7,0,0,1.79-1,2.11.91-.12.31-.33.58-.62.79Z"/>
        <path class="cls-4" d="M42.34,9.64c-2.21,3.54-7.59,2.54-9.38,6.54,1.79,0,5.37-1,6.27,1,.9,5-5.37,6-8.06,5-.9,0-.9-2-.9-3,.9,1,1.79-2,2.69-1-1.79,0-1.79-2-1.79-3,1.79-5,6.27-9,11.6-6.09-.09.21-.23.39-.43.55ZM37.75,18.65c-2.1.53-5.68-1.47-6.58.53-.9,4,7.17,4,6.61.45.06-.38.05-.7-.03-.98ZM38.8,10c-1.36-2.82-3.15-.82-4.05.18,0,1-.9,3,.9,4,.9-1,3.58,0,2.9-3.18.13-.35.21-.68.25-.99Z"/>
        <path class="cls-4" d="M45.05,17.72c3.14-1.54,4.04-6.54,2.24-7.54-1.79-3-4.48,5-3.58,8-.9,0-5.37,4-2.69,0,2.69-6,2.69-13,8.06-16-.9,3-2.69,5-3.58,8,.9-3,3.58-1,5.37-2-.9,3-2.69,6-2.34,9.53h-3.49Z"/>
        <path class="cls-4" d="M57.07,9.15c-3.5-1.97-3.5,4.03-4.39,7.03h1.79c0,2-2.69,0-2.69,2-2.69-4,.9-6,1.79-9h-1.79c1.79-1,2.69-2,4.48-3,0,1-.9,1-.9,2,.9,0,1.79,0,2.83-.36l-1.13,1.33Z"/>
        <path class="cls-4" d="M54.43,17.72c3.61-1.54,1.82-11.54,6.3-9.54,1.79,1-6.27,5-2.77,9.56l-3.53-.02ZM61.78,4.92q-4.63-5.74.71-.88c-.19.35-.43.64-.71.88Z"/>
        <path class="cls-4" d="M63.36,17.8c.96-2.62,5.44-4.62.96-8.62-1.79,3-3.58,5-2.69,9-.9,0-3.58,2-1.79-1s0-8,4.48-10c0,1-.9,2-.9,3,.9-2,2.69-2,3.58-3,1.79,4-2.69,7-.29,10.66l-3.35-.04Z"/>
        <path class="cls-4" d="M76.86,9.79c-2.69,2.39-6.27,3.39-8.06,6.39,1.79,0,4.48-2,6.27,1,0,1,0,2-.14,3.27-.23.45-.54.85-.94,1.2-.4.34-.88.61-1.42.81-.55.2-1.14.29-1.8.29-1.25,0-2.22-.22-2.91-.64.04-4.93-.86-11.93,4.52-13.93,1.79,0,2.69,0,4.79,1.05-.06.21-.16.4-.31.56ZM73.95,18.83c-1.57-1.65-3.36-.65-5.15-.65-1.79,1,0,3,1.31,3.97.34.1.65.16.94.16.34,0,.64-.02.89-.05.25-.04.47-.09.66-.17.4-.18.75-.46,1.06-.86s.46-.87.47-1.42c0-.37-.05-.7-.18-.97ZM74,9.97c.17-.79.17-1.79-.72-1.79-2.69,0-4.48,6-.9,6,1.79,0,0-3,1.45-3.16.09-.37.15-.71.17-1.05Z"/>
      </g>
      <g>
        <path class="cls-2" d="M115.52,16.38c-.31.78-.73,1.45-1.26,2.02-.53.57-1.14,1.01-1.84,1.32-.7.31-1.45.46-2.24.46s-1.52-.15-2.21-.45c-.7-.3-1.31-.73-1.83-1.29s-.93-1.22-1.24-1.99c-.3-.77-.45-1.62-.45-2.55,0-.98.16-1.87.48-2.65,1.49-2.08,3.28-4.08,5.97-4.08s5.37,3,5.12,6.66c-.02.92-.19,1.76-.5,2.54ZM113.89,11.75c.59-1.57-.31-2.57-2.1-3.57-2.69-1-4.48,1-5.21,3.58-.15.73-.22,1.46-.22,2.2s.08,1.53.25,2.25c.16.72.41,1.35.73,1.9.32.55.73.99,1.21,1.32.49.33,1.05.5,1.7.5s1.21-.18,1.68-.55c.48-.37.87-.84,1.19-1.41.47-.78.47-2.78.98-4.11.01-.7-.06-1.4-.2-2.11Z"/>
        <path class="cls-2" d="M124.09,17.33c-.65,2.85-3.33,1.85-5.16,3.28,0,.31.01.63.02.98s0,.68,0,1.01v.81c.02.1.08.18.17.23.09.05.2.09.33.12.13.03.26.05.4.06s.26.02.36.03v.19h-3.79v-.19c.1-.01.23-.03.37-.06.14-.03.28-.07.41-.11.13-.05.24-.1.32-.17.09-.07.13-.15.13-.24l.08-9.5c.34-1.59-.56.41-1.45-.59,2.69,2,7.17-6,8.2,2.36-.04.64-.17,1.24-.39,1.79ZM122.96,14.82c-1.31-2.64-3.1-2.64-4-.64,0,2-.9,5,1.79,6,1.79,0,1.79-3,2.28-4.14.02-.44,0-.84-.08-1.22Z"/>
        <path class="cls-2" d="M132.43,17.31c-.93,2.87-3.62,1.87-5.41,2.87,0,1,0,2,.13,3.23.02.1.08.18.17.23.09.05.2.09.33.12.13.03.26.05.4.06s.26.02.36.03v.19h-3.79v-.19c.1-.01.23-.03.37-.06.14-.03.28-.07.41-.11.13-.05.24-.1.32-.17.09-.07.13-.15.13-.24l.35-9.54q-.07-.55-.96-.55c2.69-1,7.17-2,7.68,2.32-.07.65-.23,1.26-.48,1.81ZM131.43,14.78c.08-2.59-2.61-1.59-3.51-1.59-1.79,2-1.79,5,.9,7,.9-1,2.69-2,2.62-4.17.04-.44.04-.85-.01-1.24Z"/>
        <path class="cls-2" d="M139.17,13.2c-.5-.02-1.4-.02-2.29-.02-1.79,2-5.37,5,0,7h-3.58c3.58-2-1.79-8,3.58-9,0,1-.9,2-.9,3,.9-2,1.79-3,3.53-1.64-.06.26-.17.48-.34.65Z"/>
        <path class="cls-2" d="M144.88,18.3c-2.63,3.88-6.21.88-6.21-2.12,0-2,2.69-4,4.48-5,.9,1,3.58,1,2.69,3-.9,1-3.58-1-5.37,0v4c.9,1,3.58,2,4.79-.74-.07.26-.19.55-.36.86ZM144.11,12.34c-1.86-.16-2.75.84-3.65,1.84.9-1,2.69,1,3.79-.7.09-.44.05-.82-.14-1.14Z"/>
        <path class="cls-2" d="M150.53,18.73c-1.11.45-2,2.45-3.79,1.45-.9-1-.9-2-.9-3,0,2,1.79,3,1.79,3,5.37-2-1.79-4-.9-7,.9-1,1.79-2,3.58-2,.9,0,.9,2,.9,3-.9-1-1.79-3-2.69-2-2.69,4,2.69,3,2.34,5.37-.05.46-.16.85-.34,1.18Z"/>
        <path class="cls-2" d="M151.16,20.09c1.84-1.91,2.74-5.91.95-7.91.9,0,1.79-1,2.69-1-.9,3-.9,6-.9,9,0,0,.9,0,.54-.08h-3.28ZM155.21,9.35c-1.31-2.17-.41-1.17.46-.71-.1.29-.25.52-.46.71Z"/>
        <path class="cls-2" d="M162.61,12.04c-3.33,1.14-2.44,6.14-5.12,8.14-.9-3,0-6-1.79-8h3.58-1.79c-.9,2,.9,4,.9,6,.9-2,3.58-3,1.79-6,.9,0,1.79,0,2.8-.17-.1,0-.22,0-.36.03Z"/>
        <path class="cls-2" d="M167.93,18.34c-.14.31-.34.6-.58.87-.24.26-.54.48-.88.65-.34.17-.72.26-1.14.26-.52,0-1-.11-1.43-.33-.43-.22-.8-.52-1.1-.92-2.63-3.69.06-5.69,2.75-7.69.9,1,3.58,0,2.69,3-1.79-1-3.58,0-5.37,1,1.79,0,0,3,1.88,3.5.36.19.77.29,1.24.29.51,0,.96-.15,1.34-.44s.64-.65.88-1.04c-.04.25-.13.53-.28.85ZM166.55,12.46c-1.01-.28-2.8-.28-2.8,1.72.9-1,2.69,1,3.03-.59.05-.44-.03-.81-.23-1.13Z"/>
      </g>
      <g>
        <path class="cls-2" d="M23.88,110.54c-1.66,3.64-7.94,5.64-10.62.64,0-2-.9-6,.9-8,2.69-2,6.27-3,8.96,0,.9,1,.9,3,1.23,4.79,0,.92-.16,1.78-.46,2.57ZM22.19,105.85c-.88-2.66-2.67-5.66-5.35-3.66-2.69,3-2.69,9,0,12,2.69,1,6.27-3,5.59-6.21,0-.71-.08-1.41-.23-2.13Z"/>
        <path class="cls-2" d="M32.49,111.76c-2.21,3.42-7.59,2.42-4,6.42h-3.58c2.69-3,0-7,.9-11h-.9c2.69,1,7.17-4,7.92,2.82-.01.64-.13,1.23-.34,1.76ZM31.28,109.17c-.11-2.99-2.79-1.99-3.69-1.99.9,2-2.69,7,2.69,7,0-2,1.79-2,1.12-3.78,0-.43-.03-.84-.12-1.22Z"/>
        <path class="cls-2" d="M40.93,112.39c-2.59,3.79-7.97.79-4.38,6.79-6.27,0,1.79-8-3.58-12,2.69-1,4.48,0,7.17,0,.9,0,.9,2,1.15,3.44-.01.64-.13,1.23-.35,1.77ZM39.73,109.82c-.49-1.64-3.18-2.64-4.08-1.64s-.9,5,0,6c1.79,2,3.58-1,4.19-3.14,0-.43-.03-.84-.11-1.22Z"/>
        <path class="cls-2" d="M47.3,115.25c-3.58.93-7.17-4.07-3.58-8.07,0,2-.9,5,.9,7,.9,0,2.69,0,2.69-1-.9-2,2.69-6-1.79-6h2.69c.9,3-.9,6,1.35,7.55l-2.24.52Z"/>
        <path class="cls-2" d="M49.92,115.14c1.86-3.96,1.86-7.96.07-11.96.9,0,1.79-1,2.69-1,.45,2,0,4.25-.22,6.47s-.22,4.42,1.12,6.31l-3.65.18Z"/>
        <path class="cls-2" d="M60.14,112.94c-2.09,3.24-2.99,2.24-5.19.54-.31-.4-.54-.87-.71-1.4-.17-.54-.25-1.11-.25-1.71,0-.49.08-.97.23-1.45.15-.48.37-.91.66-1.29.28-.38.63-.69,1.04-.93s.86-.36,1.36-.36c.4,0,.78.06,1.14.17.36.12.67.29.93.53.26.24.48.53.64.89.17.36.26.78.3,1.26h-4.98c0,.09,0,.2-.02.32-.01.12-.02.25-.02.37,0,.49.06.95.19,1.39,1.69,1.89,3.48,2.89,4.95.79-.04.25-.13.54-.28.86ZM58.36,107.1c-.26-.31-.62-.46-1.06-.46-.29,0-.55.09-.78.29-.23.19-.43.41-.61.67-.17.25-.3.51-.4.77s-.15.46-.17.6h.64c.19,0,.37,0,.55,0s.37-.01.57-.02.41,0,.65,0q1.2.25,1.01-.73c0-.43-.13-.79-.4-1.1Z"/>
        <path class="cls-2" d="M65.23,114.72c.88-2.54,2.67-6.54-.92-6.54-2.69,0-1.79,4,0,7-5.37,2-1.79-5-2.69-8h-.9c.9-1,1.79-2,2.69-1v2c.9-2,2.69-3,3.58-1,.9,3-.9,6,1.38,7.54h-3.15Z"/>
        <path class="cls-2" d="M73.48,107.58c-9.16-.4,1.58,6.6-2,6.6-3.58,1-1.79-5-1.79-7-.9-4,2.69,0,4.27-.66l-.48,1.06Z"/>
      </g>
      <g>
        <path class="cls-4" d="M120.39,110.53c-2.33,5.65-7.7,4.65-12.18,4.65.9-1,2.69-3,1.64-4.89,0-.34,0-.69.01-1.05,0-.37,0-.72,0-1.04v-3.5c0-.22,0-.43,0-.65,0-.22,0-.42-.02-.6-.02-.19-.04-.35-.07-.5-.03-.15-.08-.27-.15-.35-.16-.22-.35-.37-.58-.45-.23-.08-.48-.15-.76-.18v-.18c.45,0,1.1,0,1.95,0s1.87,0,3.07,0c.34,0,.69,0,1.03,0,.35,0,.71.02,1.06.06.35.04.71.1,1.06.18s.7.21,1.05.38c.45.22.87.49,1.27.83.4.34.74.74,1.04,1.2s.53,1,.7,1.6c.17.61.25,1.3.23,2.09-.02.91-.15,1.71-.37,2.41ZM118.53,106.1c-.19-.66-.46-1.26-.8-1.79-.34-.53-.75-.99-1.22-1.36-.47-.37-.99-.61-1.54-.72-.21-.05-.45-.09-.71-.12-.26-.03-.57-.05-.95-.05-.13,0-.27,0-.42,0-.15,0-.3.02-.44.04-.15.02-.28.03-.4.04-.12.01-.22.03-.3.05-.05.59-.09,1.4-.1,2.43-.01,1.03-.02,2.26-.02,3.68.18,1.87-.72,4.87.18,5.87,2.69,2,7.17-1,7-6.04,0-.7-.08-1.38-.27-2.04Z"/>
        <path class="cls-4" d="M127.6,113.11c-.58,2.07-2.37,3.07-4.16,2.07-2.69-2-2.69-7,0-9,1.79-1,4.48,0,4.48,2,0,6-4.48,0-5.37,1-.9,2,1.79,4,2.69,5,.9,0,1.79-1,2.74-2-.07.27-.19.59-.37.93ZM126.1,106.87c-2.65-1.69-2.65,1.31-3.55,2.31.9-1,2.69,1,3.93-1.15.01-.45-.12-.83-.38-1.16Z"/>
        <path class="cls-4" d="M137.28,115c2.28-.82,2.28-3.82,1.39-5.82-.9-1-2.69-4-3.58-1,0,2-1.79,5,.9,7h-3.58c2.69-1,.9-4,1.79-6-.9-1-2.69-4-2.69-1-.9,2-2.69,5,0,7h-3.58c3.58-2,0-7,2.69-9v2c6.27-6,10.75,0,9.91,6.78l-3.24.04Z"/>
        <path class="cls-4" d="M148.62,112.17c-1.89,2.01-3.68,5.01-6.37,2.01-1.79-2-1.79-5,0-7s7.17-1,6.7,3.24c0,.61-.12,1.2-.34,1.75ZM147.35,109.09c-.61-.91-1.51-2.91-2.41-2.91-2.69,2-2.69,6,0,9,.9-2,3.58-2,2.51-4.78,0-.41-.03-.85-.1-1.32Z"/>
        <path class="cls-4" d="M154.2,114.84q-.3-.66.97-.69l.02-4.53c0-.69-.12-1.25-.35-1.68-.24-.43-.63-.64-1.19-.64-.35,0-.65.08-.89.25-.24.17-.5.41-.79.74l-.06,5.91q1.09-.02,1.09.98h-3.58c2.69-2,0-5,1.19-7.51-.02-.05-.06-.1-.14-.16-.1-.06-.21-.13-.34-.21-.13-.08-.26-.15-.39-.21v-.11s2.11-.84,2.11-.84h.1v1.94s.03.02.03.02c.12-.2.27-.42.44-.65.18-.23.38-.45.6-.64.22-.19.47-.35.74-.47.27-.13.55-.19.84-.19.62,0,1.09.26,1.43.78.33.52.5,1.18.49,2l-.02,5.29q.98-.03.98.63h-3.29Z"/>
        <path class="cls-4" d="M163.35,113.44c-.17.34-.39.62-.67.83-.28.21-.6.37-.96.46-.36.1-.74.14-1.14.14-1.31.3-2.21.3-2.5-.56v-2.37h.14c.08.29.19.59.32.91-.17,1.32.73,1.32,2.03,1.81.51,0,.92-.16,1.23-.49.31-.33.46-.83.46-1.52,0-.37-.1-.68-.31-.93-.21-.25-.49-.41-.86-.5-.29-.06-.57-.13-.83-.2-.27-.07-.51-.15-.72-.24-.41-.16-.73-.43-.99-.81-.25-.38-.37-.84-.37-1.38,0-.37.07-.71.21-1.01.14-.3.33-.56.57-.77.24-.21.51-.38.82-.49.31-.11.64-.17,1-.17.45,0,.85.05,1.19.14.34.09.67.2.98.33l.19,2.23-.13.04c-.15-.36-.3-.69-.45-1-.15-.31-.32-.57-.5-.79-.18-.22-.39-.39-.62-.51-.23-.12-.5-.18-.8-.18-.18,0-.36.04-.54.11-.18.07-.33.18-.47.31-.13.14-.24.31-.33.52-.09.21-.13.45-.13.73,0,.44.11.76.34.95.22.19.51.34.85.43.24.06.49.12.77.19.28.07.52.13.72.19.48.13.89.41,1.23.83.34.42.5.93.5,1.55,0,.47-.08.87-.25,1.21Z"/>
      </g>
      <g>
        <path class="cls-2" d="M57.6,53.59c-.76-1.17-1.49-2.17-2.17-2.99-.69-.83-1.36-1.43-2-1.82-.32-.18-.89-.34-1.71-.46-.83-.13-1.79-.19-2.88-.19-.19,0-.4,0-.64.02-.24.01-.47.02-.7.03-.22.01-.43.02-.63.03-.19.01-.34.02-.43.02-.02.14-.04.28-.07.41-.03.14-.05.3-.07.48s-.04.42-.06.71c-.02.29-.04.64-.06,1.05-.02.8-.03,1.68-.04,2.63,0,.95-.01,1.85-.01,2.7v3.27h.5c.3,0,.63-.01.99-.04.36-.02.74-.05,1.13-.09s.71-.09.97-.15c.67-.18,1.2-.42,1.59-.72.39-.3.7-.65.92-1.07.22-.41.38-.87.47-1.36.09-.49.18-1.03.25-1.6h.33v11.07h-.33c-.15-.73-.36-1.51-.64-2.32-.28-.81-.61-1.44-1-1.88-.35-.39-.73-.68-1.13-.88-.4-.19-.87-.31-1.41-.36-.28-.02-.52-.04-.72-.05-.2-.01-.4-.02-.58-.02h-1.34v4.26c0,.64,0,1.23.01,1.77,0,.54.01,1,.01,1.39.02.73.05,1.43.1,2.08.05.65.15,1.14.32,1.46s.45.57.85.74c.4.17.98.28,1.74.33v.34h-8.91v-.34c.46-.09.9-.24,1.29-.45.4-.21.73-.49.99-.86.09-.14.17-.34.22-.6.06-.26.11-.57.15-.91.05-.34.08-.71.1-1.08.02-.38.03-.75.03-1.12,0-.32,0-.76.01-1.31,0-.55.02-1.15.03-1.81,0-.65.01-1.32.01-2.01v-8.7c0-.41,0-.84-.01-1.27,0-.43-.03-.85-.06-1.24-.03-.39-.07-.74-.14-1.05-.07-.31-.15-.53-.26-.67-.28-.37-.58-.6-.89-.71-.32-.1-.72-.2-1.22-.29v-.34h15.48l1.89,5.78-.28.17Z"/>
        <path class="cls-2" d="M62,71.93c-.3.33-.69.5-1.17.5s-.88-.18-1.2-.53c-.32-.35-.47-.83-.47-1.43s.16-1.09.47-1.5c.32-.4.71-.6,1.2-.6s.87.21,1.17.64c.3.42.45.93.45,1.53s-.15,1.06-.45,1.39Z"/>
        <path class="cls-2" d="M85,64.94c-.56,1.56-1.31,2.91-2.27,4.06-.96,1.15-2.07,2.03-3.34,2.65-1.27.62-2.62.93-4.05.93s-2.75-.3-4.01-.91-2.37-1.47-3.31-2.58c-.95-1.11-1.69-2.44-2.24-3.99-.55-1.55-.82-3.25-.82-5.11,0-1.97.29-3.74.86-5.31.58-1.57,1.35-2.9,2.32-3.99s2.12-1.93,3.42-2.51c1.31-.58,2.69-.88,4.13-.88,1.58,0,2.99.34,4.25,1.03,1.25.69,2.32,1.61,3.19,2.77.87,1.16,1.54,2.49,2,4.01.46,1.51.7,3.09.7,4.75,0,1.83-.28,3.53-.84,5.09ZM81.95,55.65c-.29-1.42-.72-2.71-1.31-3.87-.58-1.16-1.31-2.1-2.19-2.82-.87-.72-1.9-1.08-3.09-1.08s-2.25.36-3.13,1.08c-.88.72-1.61,1.66-2.17,2.8-.57,1.15-.98,2.45-1.25,3.9-.27,1.46-.4,2.93-.4,4.42s.15,3.06.45,4.51.74,2.72,1.32,3.82,1.32,1.98,2.2,2.65c.88.67,1.91,1,3.08,1s2.19-.37,3.05-1.1c.86-.73,1.58-1.68,2.16-2.84.58-1.16,1.01-2.46,1.29-3.9.29-1.44.43-2.89.43-4.33s-.14-2.81-.43-4.23Z"/>
        <path class="cls-2" d="M91.26,71.93c-.3.33-.69.5-1.17.5s-.88-.18-1.2-.53c-.32-.35-.47-.83-.47-1.43s.16-1.09.47-1.5c.32-.4.71-.6,1.2-.6s.87.21,1.17.64c.3.42.45.93.45,1.53s-.15,1.06-.45,1.39Z"/>
        <path class="cls-2" d="M114.26,64.94c-.56,1.56-1.31,2.91-2.27,4.06-.96,1.15-2.07,2.03-3.34,2.65-1.27.62-2.62.93-4.05.93s-2.75-.3-4.01-.91-2.37-1.47-3.31-2.58c-.95-1.11-1.69-2.44-2.24-3.99-.55-1.55-.82-3.25-.82-5.11,0-1.97.29-3.74.86-5.31.57-1.57,1.35-2.9,2.32-3.99.97-1.09,2.12-1.93,3.43-2.51s2.69-.88,4.13-.88c1.58,0,2.99.34,4.25,1.03,1.25.69,2.31,1.61,3.19,2.77.87,1.16,1.54,2.49,2,4.01.46,1.51.7,3.09.7,4.75,0,1.83-.28,3.53-.84,5.09ZM111.21,55.65c-.29-1.42-.72-2.71-1.31-3.87-.58-1.16-1.31-2.1-2.19-2.82-.87-.72-1.9-1.08-3.09-1.08s-2.25.36-3.13,1.08c-.88.72-1.61,1.66-2.17,2.8-.57,1.15-.98,2.45-1.25,3.9-.27,1.46-.4,2.93-.4,4.42s.15,3.06.45,4.51c.3,1.44.74,2.72,1.32,3.82.59,1.1,1.32,1.98,2.2,2.65.88.67,1.91,1,3.08,1s2.19-.37,3.05-1.1c.86-.73,1.58-1.68,2.16-2.84.58-1.16,1.01-2.46,1.29-3.9s.43-2.89.43-4.33-.14-2.81-.43-4.23Z"/>
        <path class="cls-2" d="M120.52,71.93c-.3.33-.69.5-1.17.5s-.88-.18-1.2-.53c-.32-.35-.47-.83-.47-1.43s.16-1.09.47-1.5c.31-.4.71-.6,1.2-.6s.87.21,1.17.64c.3.42.45.93.45,1.53s-.15,1.06-.45,1.39Z"/>
        <path class="cls-2" d="M145.05,64.21c-.33,1.31-.79,2.43-1.36,3.37-.58.94-1.24,1.72-2.01,2.34-.76.62-1.57,1.11-2.42,1.48-.85.37-1.74.62-2.65.77-.91.15-1.79.22-2.64.22h-10.16v-.34c.46-.07.91-.22,1.35-.45.44-.23.77-.5.99-.83.09-.12.16-.31.21-.58.05-.27.09-.58.13-.93.04-.34.06-.71.08-1.1.02-.39.03-.77.03-1.13,0-.32,0-.76.01-1.31,0-.55.02-1.15.03-1.81,0-.65.01-1.32.01-2.01v-9.94c0-.41-.01-.8-.04-1.15-.03-.36-.07-.68-.13-.96-.06-.29-.14-.51-.25-.67-.28-.41-.61-.7-1-.86-.39-.16-.83-.27-1.31-.34v-.34c.78,0,1.9,0,3.37-.02,1.47-.01,3.24-.02,5.32-.02h1.78c.61,0,1.22.03,1.84.1.61.07,1.23.18,1.84.34s1.22.4,1.81.72c.78.41,1.51.94,2.2,1.58.69.64,1.29,1.41,1.8,2.29.51.88.92,1.9,1.22,3.06.31,1.16.46,2.48.46,3.97,0,1.72-.17,3.23-.5,4.54ZM141.63,55.86c-.33-1.26-.8-2.4-1.39-3.42-.59-1.02-1.3-1.89-2.12-2.6-.82-.71-1.71-1.17-2.67-1.38-.37-.09-.78-.17-1.22-.22-.45-.06-.99-.09-1.64-.09-.22,0-.46,0-.72.02-.26.01-.52.03-.77.07-.25.04-.48.06-.7.09-.21.02-.39.06-.52.1-.09,1.12-.15,2.67-.17,4.64s-.03,4.32-.03,7.05v4.02c0,1.19,0,2.17.03,2.92,0,.32.01.67.04,1.05.03.38.06.75.1,1.1.04.36.1.68.18.96.08.29.18.5.29.64.37.46.84.75,1.41.88.57.13,1.1.19,1.6.19.46,0,.94-.03,1.43-.09.49-.06.95-.17,1.38-.33,2.01-.71,3.5-2.09,4.5-4.14.99-2.05,1.49-4.58,1.49-7.58,0-1.33-.17-2.62-.5-3.89Z"/>
      </g>
      <g>
        <path class="cls-3" d="M107.53,66.79s.1.02.11.02c-.02-.05-.14-.02-.11-.02Z"/>
        <polygon class="cls-3" points="107.27 66.3 107.32 66.31 107.21 66.24 107.27 66.3"/>
        <path class="cls-3" d="M107.25,65.84c-.17.06.04.17-.02.25l-.04.02.15.03c-.03-.1-.13-.23-.09-.3Z"/>
        <path class="cls-3" d="M107.61,65.56c-.07.02-.06-.05-.02.06h.02s0-.04,0-.06Z"/>
        <path class="cls-3" d="M107.61,65.61s.06-.04,0,0h0Z"/>
        <path class="cls-3" d="M107.56,65.38l.07.06s.04-.08.08-.06c-.04-.07-.08-.05-.14,0Z"/>
        <path class="cls-3" d="M107.42,65.33l.03.03s.02-.02-.03-.03Z"/>
        <path class="cls-3" d="M107.51,65.43l-.06-.07s-.09.02.02.03c-.05,0,0,0,.04.04Z"/>
        <path class="cls-3" d="M107.49,65.47s-.06.09-.12.03c.04.12.16.09.12-.03Z"/>
        <path class="cls-3" d="M107.06,65.83l-.05.05.06.04s.04-.1-.01-.09Z"/>
        <path class="cls-3" d="M107.6,64.96s-.1.03-.15.04l.05.04s.04-.08.1-.09Z"/>
        <path class="cls-3" d="M107.46,65l-.07-.07c0,.07.03.07.07.07Z"/>
        <polygon class="cls-3" points="107.22 65.33 107.37 65.44 107.22 65.31 107.22 65.33"/>
        <polygon class="cls-3" points="107.57 64.67 107.67 64.7 107.52 64.65 107.57 64.67"/>
        <path class="cls-3" d="M107.53,64.49c.08.02.12-.06.16-.03-.02-.05-.09-.08-.15-.11.04.04.04.08-.01.15Z"/>
        <path class="cls-3" d="M107.45,64.29s.05.03.09.05c-.02-.02-.05-.04-.09-.05Z"/>
        <path class="cls-3" d="M107.39,64.81s.08-.03.1-.07l-.1.04v.03Z"/>
        <path class="cls-3" d="M107.38,64.78h0s0-.05,0-.06c0,0,0,.03,0,.06Z"/>
        <path class="cls-3" d="M107.39,64.82h0s-.01,0,0,0Z"/>
        <path class="cls-3" d="M107.3,65.14c-.06-.04-.14-.12-.22-.02.08.02.12-.03.22.02Z"/>
        <path class="cls-3" d="M107.26,64.87l-.02.08s.07-.02.1,0l-.08-.07Z"/>
        <polygon class="cls-3" points="107.22 64.84 107.26 64.87 107.27 64.84 107.22 64.84"/>
        <path class="cls-3" d="M107.38,64.44c-.05-.03-.06-.06-.08-.1-.01.05-.02.09-.01.14.03,0,.1.01.09-.04Z"/>
        <path class="cls-3" d="M107.37,64.61h0s-.01,0,0,0Z"/>
        <polygon class="cls-3" points="107.23 63.93 107.21 63.94 107.23 63.94 107.23 63.93"/>
        <path class="cls-3" d="M107.27,64.48s.01.05.05.07c-.01-.02-.02-.05-.03-.08-.02,0-.03,0-.02.01Z"/>
        <path class="cls-3" d="M107.39,64.18s-.03.04-.05.07c.03-.02.08-.07.05-.07Z"/>
        <path class="cls-3" d="M107.39,64.59h0s.01,0,0,0Z"/>
        <path class="cls-3" d="M107.39,64.59s-.05-.02-.07-.03c.01.02.03.04.04.05,0,0,.02,0,.03-.02Z"/>
        <path class="cls-3" d="M106.54,63.95c.1-.01.21.05.11.14.09.06.4-.05.56-.15-.04,0-.08.01-.15-.05-.05.04-.09.19-.19.14-.07-.09.02-.09.06-.14-.11.06-.2-.09-.37-.03l.08.07s-.08-.01-.1.01Z"/>
        <path class="cls-3" d="M107.23,64.09l.02.03s.04-.07.11-.13c-.06-.04-.1-.05-.13-.04v.16s0,0,0,0Z"/>
        <path class="cls-3" d="M107.27,64.26c-.11,0-.17-.07-.27,0,.02.09.1.05.15.09-.05-.14.07.03.11-.08.02.03.03.05.04.08,0-.03.02-.06.04-.08h0s0,0,0,0h0s-.02.01-.01,0h0s-.04,0-.04,0c.01-.05.03-.01.04,0h.02s0,0,0,0l-.08-.14s0,.07.02.14Z"/>
        <path class="cls-3" d="M106.84,65.06s.02,0,.02,0c-.01,0-.02-.01-.02,0Z"/>
        <path class="cls-3" d="M106.9,65s.06.01.05.05c-.03.03-.05,0-.09.01.03.02.09.06.13,0h-.02c.03-.07.15-.16.17-.15-.09.03-.16.05-.25.1Z"/>
        <path class="cls-3" d="M107.06,64.63l-.07-.11-.08.08h.05c-.01.06.05.04.1.04Z"/>
        <polygon class="cls-3" points="107.28 63.91 107.4 63.9 107.23 63.86 107.28 63.91"/>
        <polygon class="cls-3" points="107.24 63.75 107.33 63.74 107.27 63.71 107.24 63.75"/>
        <path class="cls-3" d="M102.43,57.15h-.04s.03,0,.04,0Z"/>
        <path class="cls-3" d="M102.58,57.29l.04-.03s-.04.02-.04.03Z"/>
        <path class="cls-3" d="M106.2,60.16c.09-.05.23-.1.12-.09l-.11.02s.01.05-.01.07Z"/>
        <path class="cls-3" d="M104.41,58.35v.04s.05-.06.07-.09l-.07.05Z"/>
        <path class="cls-3" d="M104.22,58.76l-.06-.1s.03.06.06.1Z"/>
        <path class="cls-3" d="M101.21,56.58l-.1.05h-.02s.01.02.01.02c.09.04.08-.02.11-.06Z"/>
        <path class="cls-3" d="M106.75,62.14c.02-.06.03-.1.02-.13-.04.07-.11.15-.02.13Z"/>
        <path class="cls-3" d="M103.24,56.32s-.05,0-.07.03c.03,0,.06,0,.07-.03Z"/>
        <path class="cls-3" d="M106.72,61.89s0,.02-.02.03c.03.02.05.05.06.09.03-.05.04-.11-.05-.12Z"/>
        <path class="cls-3" d="M99.99,51.72h.01s-.02,0-.01,0Z"/>
        <path class="cls-3" d="M101.14,50.28s0,.04,0,.06c0-.01,0-.03,0-.06Z"/>
        <path class="cls-3" d="M107.13,63.1s.01,0,0,0h0Z"/>
        <path class="cls-3" d="M106.76,63.36s-.03,0-.05,0c.03,0,.04,0,.05,0Z"/>
        <path class="cls-3" d="M105.97,61.82h0s-.01.01,0,0Z"/>
        <path class="cls-3" d="M107.1,63.16s.02-.03.02-.05c0,0-.01.02-.02.05Z"/>
        <path class="cls-3" d="M107.15,63.14s0,.02,0,.03c.02,0,.03,0,0-.03Z"/>
        <path class="cls-3" d="M107.11,63.05s0,.04,0,.06c0,0,.01-.01.01-.01,0-.01,0-.02-.02-.05Z"/>
        <path class="cls-3" d="M101.01,53.93s0,0,0,0c-.05-.01-.04,0,0,0Z"/>
        <polygon class="cls-3" points="105.06 59.38 105.07 59.38 105.07 59.38 105.06 59.38"/>
        <path class="cls-3" d="M104.97,59.3c.14,0,.12.05.1.07l.31-.05c-.14-.02-.27-.03-.41-.02Z"/>
        <path class="cls-3" d="M101.98,56.89v.12c-.14.09-.17.02-.18.17.18-.29.25.1.43-.17v.08s-.02,0-.03,0c-.02.18.19-.17.26-.06.02.05,0,.1-.04.12h.12s-.03.05-.04.03l.12.07h0s.14-.05.18-.06c-.01.06-.04.01-.06.05h.11c-.04.08-.15.09-.17.05-.2.28.11-.02.05.23l-.07-.02c-.12.16-.04.14-.09.28.04-.05.14-.3.26-.3,0,.03,0,.07.09.06-.1.07-.05.09,0,.13l-.13.09c.07.02.14-.03.22-.04.03.07-.06.15-.14.23.05.12.11-.18.22-.08,0,.12.11.15.27.21,0,.1-.09.05-.1.1l.15-.02s-.02.04-.04.05c.08.02.13-.1.22-.05.14-.1-.05.34.21.28,0,.06-.07.07-.11.12.24.02.2.03.42-.04l.07.15c-.04-.15.14-.22.25-.31,0-.06,0-.12-.01-.15.05-.01.09-.03.14-.04,0,.03-.02.08-.06.14l.03-.03c.03.07-.01.15-.07.23l-.02-.11c-.06.08-.14.17-.16.26.02-.01.04-.02.07-.02-.02.02-.03.04-.03.06,0,.02.03,0,.07-.04v.18s.02-.07.02-.07c.07.06.14.11.2.16.15-.16.24-.43.49-.44-.11.11-.11.2-.19.34.04-.17-.12.04-.16,0,.03.02,0,.09-.01.12.04-.05.09-.09.14-.13-.06.12-.02.09-.03.15.11-.24.17-.12.25-.15-.06.07-.12.13-.15.09-.09.18.27-.19.2-.01-.01-.01,0-.03-.04,0,.08-.03.08.09,0,.11h0c.02.08.08.22.29.21-.03,0-.25.03-.3.04.24-.01.49.07.73.15-.18-.01-.61.08-.72-.02-.02.03-.05.07.01.13.03-.02.26-.06.28-.03-.2.09-.11.06-.28.16.04-.03.33,0,.32.06-.04,0-.28,0-.31-.02l.28.14c-.05-.04-.24,0-.32.02.06-.02,0,.13.02.17l.06-.07c-.04.18.4.16.4.32-.06-.01-.36-.02-.39.07.15.03.71.09.84.19l-.08.04.11.08c-.22,0-.71-.12-.9-.21-.06.07-.1.03-.07.13-.07.05-.13-.04-.13-.07v.25c.15-.04.19.15.33.11l-.22-.21c.16-.03.49.06.5.21-.06.05-.3.04-.35.05.06,0,.14.12.11.15l-.1-.04c-.04.11.25.08.13.23,0,.04-.17.17-.08.15.16-.12.73-.3.88-.3-.01.01-.12.22-.2.29-.12.1-.37.03-.47.12.04-.01.11,0,.13,0-.03.05-.14.03-.09.1.17-.04.04.16.15-.01.07.06,0,.09.03.17.09-.06.38-.05.45,0-.04.01-.09.05-.11.06.04.15,0,.26.05.39-.03.03-.06.11-.14.11.04,0,.1,0,.11.05-.11.13-.05-.08-.2.04.09-.03.17.06.25.1.14-.07-.02-.15-.1-.18.2-.07.44-.05.59.07.09.1-.11.09-.08.1.04.23.41.08.32.31-.11.11-.26.08-.34.12-.08-.08.04-.17.01-.23l-.04.1c-.05-.02-.1-.07-.08-.11-.1.1.09.37.03.57.05.02.11.06.16.02l-.03-.05c.09-.08.17.06.2-.02.09.05.23.11.2.23l-.14.06s.07-.09.02-.11c.08.03-.16.21.04.21l.09-.1c.09.06.27.11.25.22.14-.07-.02-.02.14-.12-.2.11-.05-.24-.25-.1.18-.12.06-.14.2-.27-.05.02-.09.06-.08-.03-.02,0-.04,0-.05,0h0s0,0,0,0c0,0,0,0,0,0-.02.02-.04.05-.06.06-.12-.01-.15-.13-.22-.16.01-.05.06,0,.11-.04l-.1-.04c.11-.04.14-.17.24-.08l-.02-.1c.04-.08.04-.16-.02-.2,0-.05-.16-.08-.06-.07l-.12-.13h.03c-.04-.17-.28-.26-.15-.49-.04-.04-.1-.08-.1-.17l.08-.05c-.05-.05.02-.22-.08-.2.22-.16-.05-.3-.04-.41l-.12.04c-.02-.07-.07-.12-.14-.19l-.11.04c-.11-.05.02-.21-.01-.32.04,0,.04.03.02.06.22-.18-.24-.25-.07-.41-.04-.03-.03-.05,0-.07h0s0,0,0,0c.02-.02.04-.03.06-.05-.03.01-.05.03-.06.04,0-.02-.02-.06-.05-.09l.12-.02h0s-.06-.03-.15,0c-.02-.02-.04-.03-.07-.04.19-.03-.07-.1.14-.14-.1-.02-.07-.2-.29-.23.03,0,.04-.01.04,0,.02-.05.05-.09-.01-.14l.15-.02-.21-.1c.09-.07.14-.1.26-.04-.19-.15-.07-.14-.27-.28h.1c-.01-.08-.16-.13-.09-.18.16-.21-.2-.65-.48-.91-.07.28-.11-.18-.22.03,0-.07-.04-.12.05-.16-.2.02-.32-.16-.42.02,0-.07.04-.1.03-.14,0,.01-.04.06-.04.01,0-.04.02-.06.04-.08-.08,0-.12.2-.18.4-.02-.1-.04-.1-.12.01,0-.07,0-.14.07-.14-.04-.02-.12-.16-.21-.03.01-.04-.03-.04-.05-.03-.06-.06-.05-.07-.12-.12v.03c-.16.11-.08-.02-.15-.06h.02c0-.23-.1-.03-.08-.26l-.09.08c-.22.14.03-.22-.11-.25l-.03.07c-.11,0,.19-.34.18-.41,0-.02.04,0,.07,0,.02-.23-.14.07-.24,0,.05-.07.19-.1.15-.19.02-.08-.38-.04-.35-.23-.03.07-.06.13-.13.12-.08-.05-.02-.36-.22-.26,0-.02,0-.04.02-.05-.09,0-.24-.08-.34,0,.18-.39-.46-.06-.26-.38l-.19-.08.02-.03c-.1-.08-.19-.02-.27.04-.01-.04.02-.06.03-.08-.13-.15-.16-.15-.37-.04l.05-.11s-.03,0-.04-.03c-.02-.07,0-.16-.13-.14.01,0,.04-.02.05-.03-.1,0-.05-.1,0-.15.04-.06.05-.08-.18-.08-.04-.02-.07-.05-.1-.08-.05.13-.2-.02-.28.03-.02-.07.16-.15.17-.07h-.02c.23.05.11-.14.27-.12.05-.31.31-.62.28-1.11l-.17.07v-.15s.12-.09.13.03c.1-.09-.13-.18-.17-.17-.02-.25.24.02.21-.05l-.05-.1v.03c-.12-.06-.18-.03-.25-.16-.02-.1.07-.1.05-.14.01,0,0-.02-.03-.05h0s-.13-.22-.13-.22l-.33.02h-.15s.08.14.08.14c-.06.08-.14.02-.05.17-.07-.11-.21-.11-.35-.09l.42.16s-.07-.12-.04-.14c-.12-.03-.13-.1-.13-.19-.03.02-.19.06-.18-.03.33,0,.14-.16.38-.23-.16.06-.04-.23-.26-.14.03-.07.13,0,.21-.05-.12-.18.11-.36.08-.61-.04,0-.11.03-.18-.02l.22-.11s-.25-.05-.1-.13c-.04,0-.09.02-.11,0,.23-.44-.15-.9.27-1.35-.09.06-.09.02-.1-.03-.02.03-.11,0-.17,0l.17-.19c-.16-.03,0-.2-.16-.22l.03.06c-.18-.08-.42.11-.66.1.21.09-.32.23-.02.37-.05.03-.08-.03-.13-.01.1.04.12.08.07.16h-.03c.02.22-.09.31-.16.56l.12-.02c-.02.05-.06.06-.09.09.18.07.02-.15.21-.09-.24.06-.02.39-.29.42,0,.08.14-.02.13.06l-.07.02.09.03c-.02.05-.11.08-.17.08,0-.01-.02-.04-.02-.05-.09.07.02.2,0,.22l.05-.07c.06.21-.07.5.08.75l.06-.02c.1.19-.07.15-.01.36h-.01c.06.03.09.09.09.15-.07-.05-.12.12-.2.05.14.21.1.11.34.21l-.08.06c.1.03.14.02.2.12-.11-.06-.1.13-.24.06-.03.12.02.21.09.27l.36.32.15-.12c.06-.05.1-.16.18.02.03-.27-.17-.11-.14-.18-.06-.08.03-.2.09-.18.05,0,.13.24.23.28l-.42-.17s0,.02,0,.02c0,0-.02,0-.02,0-.05.05.1-.02.01.06.15-.04,0,.03.19-.02l-.07-.06c.05,0,.31,0,.21.13-.04,0-.1-.03-.13-.04-.05.03.05.04,0,.08-.2.01-.06-.11-.21-.08-.07.03.16.02-.06.05.27-.02-.02.05.18.11h-.12s.08.03.07.05c-.05-.02-.1-.04-.15-.05.12.07-.12.09-.06.16.02-.13.15,0,.24-.05.13.2-.32.04-.31.25-.01-.03.09-.09.14-.03-.03.04-.09.08-.16.09-.01.16.12,0,.18.09-.15.02.04.09.07.17l-.12-.03c-.12.18.23.09.1.29-.05-.04-.1-.08-.15-.12l.02.14-.13-.04c.08.16.06.19.01.34.09-.04.21,0,.23.1-.06.09-.12-.02-.08.14-.08-.01-.18-.04-.08-.14-.04,0-.08-.03-.12-.03-.07.11,0,.25.03.31,0-.03,0-.06,0-.08.08.07.14.13.23.18-.02.05-.07.04-.12.03.03.04.1.05.14.11-.09.03-.18.09-.27,0,.07.07.15.12.23.17-.03.04,0,.18-.06.17.07.13.34.12.48.22.02.01.03.02.05.04.02-.01.05-.02.09,0,.14.1.14.23.32.18l-.02.19c.1,0,.02-.24.19-.22.13,0-.03.15-.02.21.09-.05.26-.16.28,0-.04.01-.05-.02-.09-.03ZM102.83,57.47s-.12.02-.07-.03c.12-.07.08-.02.07.03ZM104.55,58.63s-.06,0-.08-.04c.03,0,.06,0,.08.04ZM106.94,62.75h0c.03-.07.02-.04,0,0ZM106.92,62.88s.04,0,.05,0c-.03,0-.04-.02-.04-.06-.03.02-.04.04,0,.06ZM101.57,53.25v.05c-.08-.04-.04-.04,0-.05Z"/>
        <path class="cls-3" d="M104.24,58.72s0-.04.01-.07c-.02.01-.03.04-.01.07Z"/>
        <polygon class="cls-3" points="101.23 56.57 101.23 56.57 101.21 56.58 101.23 56.57"/>
        <path class="cls-3" d="M105.37,61.55s.03-.05.04-.06c-.03,0-.05.03-.04.06Z"/>
        <path class="cls-3" d="M107.27,63.44l-.05-.07s0,.05-.02.08c.03,0,.06-.03.07,0Z"/>
        <path class="cls-3" d="M106.67,64.21s0,.02.02.03h.05c-.01-.06-.06-.08-.08-.03Z"/>
        <path class="cls-3" d="M106.9,63.59c-.1.03-.05.06-.02.11h0c.14-.02.08-.07.03-.11Z"/>
        <path class="cls-3" d="M106.88,63.71s.01.03.01.05c.06,0,0-.02-.01-.05Z"/>
        <path class="cls-3" d="M107.02,63.01s.13-.02.09,0c.13,0-.2-.12-.09,0Z"/>
        <polygon class="cls-3" points="106.58 63.71 106.7 63.66 106.59 63.65 106.58 63.71"/>
        <path class="cls-3" d="M106.58,63.3v.09s.02,0,.03.01c0-.05,0-.11-.03-.1Z"/>
        <path class="cls-3" d="M106.61,63.39s.01.05.04.06c0-.01-.02-.04-.04-.06Z"/>
        <polygon class="cls-3" points="106.52 63.61 106.54 63.58 106.53 63.52 106.52 63.61"/>
        <path class="cls-3" d="M106.35,62.46l-.06-.07s-.06.04-.03.06c.04.01.06.04.1,0Z"/>
        <path class="cls-3" d="M106.11,62.82s.04-.04.08-.07l-.15.04.07.02Z"/>
        <path class="cls-3" d="M105.99,62.59s-.16-.08-.11.02c.04,0,.1.06.11-.02Z"/>
        <polygon class="cls-3" points="105.73 61.29 105.74 61.31 105.98 61.23 105.73 61.29"/>
        <path class="cls-3" d="M104.89,60.17c-.05.13.16.02.09.13.06.02.06-.09.11-.07-.07-.06-.03-.11-.2-.06Z"/>
        <path class="cls-3" d="M105.09,60.23s.02.02.04.03c-.02-.02-.03-.03-.04-.03Z"/>
        <polygon class="cls-3" points="101.28 50.03 101.34 49.96 101.25 50 101.28 50.03"/>
        <path class="cls-3" d="M101.1,49.9l.16-.02-.15-.04s.02.04-.02.06Z"/>
        <path class="cls-3" d="M102.66,57.79l.03-.02s.02-.04.01-.07l-.05.09Z"/>
        <polygon class="cls-3" points="102.28 57.24 102.29 57.25 102.36 57.11 102.28 57.24"/>
        <path class="cls-3" d="M101.65,57.07s.07,0,.09.02c-.07,0,0-.19-.09-.02Z"/>
      </g>
      <g>
        <path class="cls-3" d="M83.73,77.31c.06.02.05-.09.06-.11-.1.01-.06.14-.06.11Z"/>
        <polygon class="cls-3" points="82.78 77.45 82.8 77.41 82.65 77.51 82.78 77.45"/>
        <path class="cls-3" d="M81.93,77.38c.06.19.31,0,.45.07l.02.04.08-.14c-.19,0-.43.08-.55.02Z"/>
        <path class="cls-3" d="M81.53,76.95c.02.07-.1.05.1.03,0,0-.01-.01-.02-.02-.02,0-.04,0-.08-.01Z"/>
        <path class="cls-3" d="M81.61,76.96c.09,0-.05-.06,0,0h0Z"/>
        <path class="cls-3" d="M81.22,76.96l.12-.05s-.12-.07-.07-.09c-.12.02-.1.06-.04.14Z"/>
        <path class="cls-3" d="M81.09,77.07l.06-.02s-.02-.03-.06.02Z"/>
        <path class="cls-3" d="M81.28,77.01l-.13.04s0,.09.06-.01c-.02.05.01,0,.07-.03Z"/>
        <path class="cls-3" d="M81.35,77.05c.06.05.14.08.02.13.22,0,.2-.13-.02-.13Z"/>
        <path class="cls-3" d="M81.87,77.56l.08.06.08-.05s-.16-.06-.16,0Z"/>
        <path class="cls-3" d="M80.55,76.75s.02.11.01.16l.09-.03s-.11-.07-.1-.13Z"/>
        <path class="cls-3" d="M80.57,76.91l-.13.04c.11.03.13,0,.13-.04Z"/>
        <polygon class="cls-3" points="81.04 77.26 81.27 77.16 81 77.26 81.04 77.26"/>
        <polygon class="cls-3" points="80.11 76.65 80.2 76.58 80.05 76.68 80.11 76.65"/>
        <path class="cls-3" d="M79.83,76.58c.07-.05-.02-.14.04-.17-.08-.01-.16.03-.23.06.07,0,.13.02.2.1Z"/>
        <path class="cls-3" d="M79.51,76.52s.08-.02.12-.04c-.04,0-.08.02-.12.04Z"/>
        <path class="cls-3" d="M80.24,76.89s0-.09-.07-.13l.02.12h.05Z"/>
        <path class="cls-3" d="M80.19,76.88h0s-.08-.03-.1-.04c.01,0,.04.02.1.04Z"/>
        <path class="cls-3" d="M80.25,76.89h-.01s0,.01.01,0Z"/>
        <path class="cls-3" d="M80.73,77.12c-.08.05-.25.08-.12.2.07-.06,0-.13.12-.2Z"/>
        <path class="cls-3" d="M80.28,77.03l.12.05s-.01-.07.03-.09l-.15.04Z"/>
        <polygon class="cls-3" points="80.21 77.05 80.28 77.03 80.23 77.01 80.21 77.05"/>
        <path class="cls-3" d="M79.67,76.69c-.07.03-.12.01-.19,0,.06.04.13.08.19.1.02-.03.07-.08,0-.1Z"/>
        <path class="cls-3" d="M79.92,76.79h-.01s0,.02.01,0Z"/>
        <polygon class="cls-3" points="78.9 76.42 78.9 76.44 78.91 76.42 78.9 76.42"/>
        <path class="cls-3" d="M79.68,76.81s.08.02.12,0c-.04,0-.08,0-.13-.02,0,.01-.01.02,0,.02Z"/>
        <path class="cls-3" d="M79.33,76.5s.04.06.06.09c-.01-.04-.04-.11-.06-.09Z"/>
        <path class="cls-3" d="M79.89,76.76h0s-.01-.02,0,0Z"/>
        <path class="cls-3" d="M79.89,76.76s-.06.03-.09.04c.03,0,.07,0,.1,0,0,0,0-.02,0-.03Z"/>
        <path class="cls-3" d="M78.38,76.9c.06-.07.24-.07.31.08.15,0,.22-.34.22-.54-.02.04-.04.07-.18.06,0,.07.18.24.05.27-.18-.04-.11-.09-.15-.19,0,.15-.28.03-.35.2l.17.04s-.09.03-.06.08Z"/>
        <path class="cls-3" d="M79.1,76.55h.05s-.06-.09-.09-.19c-.09,0-.13.03-.15.06l.21.13h-.02Z"/>
        <path class="cls-3" d="M79.36,76.65c-.08.08-.21.08-.19.22.15.05.13-.04.23-.05-.23-.07.09-.03-.05-.15.05,0,.09.01.13.02-.04-.03-.07-.06-.09-.09h0s0,0,0,0h0s0,.03,0,.02h0s-.02.02-.03.03c-.05-.05,0-.03.03-.03h0s0-.02,0-.02l-.24-.04s.1.05.21.09Z"/>
        <path class="cls-3" d="M80.44,77.52s0-.02,0-.03c-.02,0-.03.02,0,.03Z"/>
        <path class="cls-3" d="M80.34,77.43s.05-.05.1-.03c.05.04-.01.05-.01.09.04-.02.14-.05.04-.12h-.02c-.1-.05-.2-.21-.18-.22,0,.1.02.17.07.28Z"/>
        <path class="cls-3" d="M79.8,77.08c-.07,0-.15,0-.22-.01l.08.12v-.06c.12.06.12-.02.14-.05Z"/>
        <polygon class="cls-3" points="78.91 76.36 78.99 76.27 78.81 76.36 78.91 76.36"/>
        <polygon class="cls-3" points="78.7 76.24 78.76 76.16 78.67 76.18 78.7 76.24"/>
        <path class="cls-3" d="M72.91,61.43l-.02-.08s.01.06.02.08Z"/>
        <path class="cls-3" d="M72.9,62.03h.05s-.05-.03-.05,0Z"/>
        <path class="cls-3" d="M76.61,70.24c.08-.14.2-.3.09-.26l-.1.05c.03.07.03.15.01.21Z"/>
        <path class="cls-3" d="M74.8,65.57l-.03.03s.08.03.11.04c-.03-.02-.06-.05-.09-.08Z"/>
        <path class="cls-3" d="M74.35,65.59l.04-.14s-.03.08-.04.14Z"/>
        <path class="cls-3" d="M73.34,58.8l-.09-.1c-.02.12.04.08.09.1Z"/>
        <path class="cls-3" d="M77.31,74.19c.02-.09.02-.15.01-.2-.04.11-.1.2-.01.2Z"/>
        <path class="cls-3" d="M74.04,61.69s-.04-.05-.06-.05c.02.04.04.05.06.05Z"/>
        <path class="cls-3" d="M77.27,73.77s0,.03-.01.05c.03.05.06.1.07.17.03-.08.03-.16-.06-.22Z"/>
        <path class="cls-3" d="M76.06,50.08h.01s-.02,0-.01,0Z"/>
        <path class="cls-3" d="M75.08,47.78s.08,0,.13,0c-.02-.01-.06-.02-.13,0Z"/>
        <path class="cls-3" d="M78.04,75.57s.01,0,0,0h0Z"/>
        <path class="cls-3" d="M77.88,76.04s-.04,0-.05.02c.02-.01.04-.02.05-.02Z"/>
        <path class="cls-3" d="M76.47,73.33h0s-.01.01,0,0Z"/>
        <path class="cls-3" d="M78.05,75.66s0-.05-.01-.07c0,.01,0,.03.01.07Z"/>
        <path class="cls-3" d="M78.08,75.62s.01.03.02.04c.02,0,.02-.02-.02-.04Z"/>
        <path class="cls-3" d="M78,75.52s.03.05.04.07c0-.01,0-.02,0-.02-.01-.01-.02-.02-.05-.05Z"/>
        <path class="cls-3" d="M74.6,54.63h.01c-.03-.08-.03-.05-.01,0Z"/>
        <polygon class="cls-3" points="75.09 68.91 75.1 68.91 75.1 68.9 75.09 68.91"/>
        <path class="cls-3" d="M74.95,68.71c.15.05.15.11.15.19l.27-.17-.42-.02Z"/>
        <path class="cls-3" d="M73.11,60.23l-.13.13c-.11-.23-.03-.34-.19-.23.32.09-.11.62.22.72l-.09.1s0-.04,0-.07c-.2.19.21.2.12.47-.04.1-.09.16-.13.09l.07.24c0,.07-.07.05-.06-.02,0,.12.02.25.04.39h-.01c.07.07.18.18.22.23-.01.12-.05-.04-.08,0l.07.09.09.09c-.03.08-.12.05-.19-.06-.02-.04-.04-.09-.05-.14-.07.08-.09.14-.08.19.02.13.22.11.25.45-.05-.05-.09-.1-.14-.15-.1.22.05.32.06.55.02-.07.02-.52.21-.38.01.06.04.13.16.18-.1.07-.02.13.05.22l-.14.08c.1.07.16.01.26.03.05.11-.06.18-.14.25.04.14.13-.18.24-.03,0,.15.1.27.26.44-.02.14-.1,0-.13.06l.15.07s-.04.03-.06.03c.07.08.16-.04.24.1.18,0-.17.37.06.51-.03.06-.1,0-.16.03.18.23.14.2.36.38l-.07.2c.09-.16.26-.01.41.12.05-.06.09-.11.11-.14l.13.23s-.08.02-.15,0l.05.04c-.04.1-.14.07-.24.03l.08-.11c-.11-.04-.22-.08-.31-.05.02.01.04.04.06.07-.03-.01-.05-.02-.07,0-.01.01.02.03.07.06l-.16.09h.07s-.04.34-.04.34c.23.19.53.34.69.68-.15-.06-.21.03-.36.06.14-.14-.13-.26-.14-.46,0,.1-.07.1-.1.08l.22.3c-.13.02-.08.09-.11.19.23-.12.22.21.33.33-.08.03-.17.02-.19-.15-.14.23.34.17.23.38-.01-.04,0-.07-.05-.07.09.08.09.32,0,.29v-.04c.02.28.18.82.39.8-.03.01-.25.04-.3.03.26.09.53.18.81.26-.19.02-.55.31-.72.12,0,.07,0,.16.1.27.01-.05.21-.19.25-.14-.14.22-.06.15-.17.39.02-.07.31-.1.33,0-.05,0-.27.09-.31.07l.34.16c-.07-.05-.23.06-.29.13.05-.04.05.2.09.25l.04-.11c.01.26.45.18.46.48-.06-.04-.36-.06-.39.06.15.04.68.32.8.54l-.08.05.11.17c-.24-.06-.7-.43-.87-.63-.07.11-.1.02-.09.2-.08.06-.12-.1-.12-.15-.02.12-.04.27-.05.44.16-.02.2.33.34.29-.08-.14-.15-.3-.21-.47.17-.01.48.27.5.53-.05.08-.3,0-.36,0,.06.03.15.26.12.29l-.11-.11c-.03.18.27.22.16.44,0,.07-.16.24-.06.23.16-.15.73-.31.89-.28,0,.02-.1.36-.17.46-.12.14-.39-.06-.49.06.05,0,.11.03.14.05-.02.07-.14.01-.09.14.17-.02.06.28.16.03.08.12,0,.15.05.31.09-.08.4.05.48.18-.04,0-.09.04-.11.06.05.28,0,.45.07.72-.03.03-.05.17-.13.14.04.03.1.05.13.13-.1.2-.07-.18-.21,0,.1-.02.19.18.29.27.13-.08-.05-.27-.14-.37.2-.05.47.09.64.31.12.19-.1.13-.06.16.11.4.46.18.45.53-.06.17-.24.13-.31.2-.13-.14-.04-.28-.09-.39v.16c-.07-.03-.14-.13-.13-.21-.08.16.26.66.36.98.07.02.17.07.18,0l-.07-.07c.04-.13.23.06.2-.07.14.06.32.08.39.25l-.09.13s-.01-.15-.08-.15c.1,0,.04.35.25.25l-.02-.16c.15.02.36,0,.45.12.03-.16-.04,0,0-.21-.07.23-.27-.24-.32.03.06-.22-.06-.2-.02-.41-.04.04-.04.1-.1,0-.01,0-.04,0-.05,0h0s0,0,0,0c0,0-.01,0,0,0,0,.04,0,.07-.02.09-.13.03-.25-.13-.33-.16-.02-.08.07,0,.09-.07l-.13-.04c.09-.07.06-.26.2-.15l-.07-.13c.01-.11-.02-.23-.09-.28,0-.07-.19-.13-.08-.1l-.16-.21h.03c-.07-.25-.34-.47-.22-.82-.05-.08-.11-.16-.11-.32l.09-.05c-.06-.11.02-.37-.1-.41.22-.2-.1-.61-.11-.82l-.12.02c-.03-.14-.1-.26-.19-.42l-.11.04c-.12-.13,0-.39-.04-.6.04,0,.04.06.02.11.2-.29-.23-.48-.03-.8-.04-.07-.03-.13,0-.19,0,0,0,.01,0,.02v-.03s.04-.08.05-.12c-.02.04-.04.07-.05.1,0-.06-.03-.17-.07-.26l.11-.06s0-.01,0-.02c.03-.1-.07-.06-.15,0-.03-.04-.06-.07-.09-.1.18-.11-.11-.2.06-.34-.11-.03-.19-.38-.41-.35.03-.01.03-.04.05,0,0-.09,0-.18-.09-.23l.13-.08-.25-.11c.05-.14.09-.19.24-.13-.25-.19-.13-.18-.35-.35l.1-.02c-.02-.08-.18-.17-.11-.24.14-.23-.18-.89-.12-1.38-.26.15.08-.24-.15-.21.06-.04.08-.11.16-.05-.12-.22.03-.37-.2-.49.06-.04.11.03.15,0-.02-.02-.08-.06-.04-.09.03-.03.06.02.1.05-.07-.23-.27-.22-.48-.2.07-.14.04-.2-.1-.26.06-.06.11-.14.16,0,0-.09-.01-.54-.17-.52.03-.04-.01-.12-.04-.14-.03-.2-.02-.22-.08-.4v.06c-.22-.03-.09-.15-.16-.29h.02c.03-.39-.1-.13-.06-.52l-.11.06c-.26.06.05-.35-.16-.53l-.02.1c-.12-.06.14-.48.09-.6,0-.04.05.01.09.04-.06-.35-.16.05-.31-.12.05-.08.2-.08.14-.21.02-.09-.44-.16-.33-.34h0s0,0,0,0c-.05.04-.09.08-.15.06,0,0-.01,0-.02,0-.06-.09.2-.27,0-.4.02-.02.04-.02.05-.02-.05-.1-.05-.34-.15-.43.42-.02-.05-.73.32-.65l.07-.36.04.02c.08-.23,0-.32-.07-.42.04-.05.06,0,.08,0,.15-.31.14-.35.01-.67h.13c-.05-.09.29-.44.22-.79.01,0,.04.02.05.05-.06-.4.53-.8.11-1.03l-.06-.26c-.1.3-.18-.09-.28.03,0-.13.2-.29.19-.13l-.03.02c.22.1.17-.37.32-.33.12-.61.36-1.2.49-1.78l-.19.03.05-.2c.05-.05.15-.05.12.1.12-.06-.04-.26-.08-.27.13-.27.19.15.21.06v-.12s-.02.02-.02.02c-.05-.12-.13-.11-.08-.32.04-.16.12-.09.13-.13.01,0,.02-.01,0-.07l.03-.25-.15.1c-.07-.12.02-.24-.15-.13.13-.06.17-.37.17-.49.02-.13.1-.25.17-.28,0-.18.11-.3.24-.48-.06.03-.2-.04-.09-.18.27.21.28-.19.55-.17-.2.02.22-.42-.07-.38.1-.1.11.06.23.01.07-.35.51-.61.62-1.16-.04-.02-.12.05-.16-.08.09-.07.18-.14.26-.23-.01-.12-.24-.11-.09-.3-.04.03-.09.07-.11,0,.12-1.05-.76-1.85-1.75-2.3.12.1.03.1-.07.09.06.03-.01.11,0,.17-.12-.07-.24-.13-.37-.19-.07.16-.39,0-.42.17l.11-.03c-.15.19.2.42.18.66.18-.21.38.32.62.07.04.06-.06.07-.04.13.07-.09.15-.09.24,0l-.02.02c.29.11.31.28.44.62l.09-.08c.03.08,0,.12,0,.17.21,0-.1-.22.11-.23-.14.21.24.58-.04.69.01.1.13-.05.14.06l-.07.03.1.03c-.01.08-.11.11-.18.1,0-.02,0-.05-.02-.06-.09.07,0,.24-.04.27l.07-.09c.02.31-.31.66-.42,1.09h.06c-.09.33-.19.18-.34.53v-.02c0,.1-.02.19-.06.25-.02-.09-.18.04-.19-.08-.09.31-.02.17,0,.48h-.11c.02.11.05.13-.04.32.02-.2-.2.07-.18-.17-.24.18-.24.42-.19.58.03.14.06.21-.09.3.25.18.16-.31.21-.22.09-.07.19.15.15.26-.01.12-.34.19-.35.48,0-.03-.02-.03-.01-.06-.04.07-.01.09,0,.11.01.04,0,.11-.06.16.14.1-.04.17.15.22v-.27c.03.16.23.34.07.56-.04-.03-.07-.11-.09-.16-.07.06.01.15-.06.21-.19-.06.02-.33-.1-.51-.1.06.08.33-.11.21.25.16-.09.27.08.51l-.11-.03s.05.11.04.16l-.13-.13c.1.18-.17.28-.13.44.06-.31.15-.04.27-.16.08.42-.35.16-.38.61,0-.06.11-.21.15-.1-.04.08-.11.18-.18.22-.04.29.13-.02.17.12-.16.07.03.15.04.29l-.12-.02c-.15.31.23.14.07.42l-.14-.16v.16s-.12-.06-.12-.06c.06.19.03.24-.05.39.09-.02.21.07.18.21-.09.08-.1-.08-.13.13-.06-.06-.15-.13-.02-.2-.04-.02-.06-.06-.1-.08-.1.09-.08.27-.09.34.01-.03.02-.06.05-.08l.1.33c-.05.04-.08,0-.11-.05,0,.06.04.12.04.21-.09-.04-.19-.06-.21-.2l.04.31s-.15.12-.17.08c-.09.15.1.43-.02.62.02.01.03.04.03.09-.06.19-.22.34-.14.6l-.2.1c0,.19.26-.13.25.19,0,.23-.16.05-.23.11.07.11.2.34,0,.51-.02-.08.02-.12.02-.19ZM73.31,62.91s-.17-.08-.13-.15c.15-.02.12.06.13.15ZM74.64,65.95s-.04-.08,0-.15c.02.04.02.09,0,.15ZM77.67,75.14h0c0-.1,0-.06,0,0ZM77.7,75.33s.04,0,.05-.02c-.03,0-.05-.03-.07-.07-.02.03-.03.06.02.09ZM75.52,54.06l-.03.04c-.03-.09,0-.06.03-.04Z"/>
        <path class="cls-3" d="M74.4,65.59s.04-.02.06-.03c-.02-.01-.05,0-.06.03Z"/>
        <polygon class="cls-3" points="73.35 58.82 73.36 58.81 73.34 58.8 73.35 58.82"/>
        <path class="cls-3" d="M75.81,72.65s.02-.08.04-.1c-.03,0-.05.03-.04.1Z"/>
        <path class="cls-3" d="M78.42,75.9s-.07-.03-.1-.05c.04.03.04.06.04.09.02-.02.03-.07.06-.05Z"/>
        <path class="cls-3" d="M78.89,77.09s.04.01.06,0l.02-.05c-.08-.03-.15-.02-.08.04Z"/>
        <path class="cls-3" d="M78.24,76.27c-.06.08.02.11.1.15h-.01c.1-.11,0-.13-.09-.15Z"/>
        <path class="cls-3" d="M78.36,76.43s.05.02.07.04c.04-.04-.02-.03-.07-.04Z"/>
        <path class="cls-3" d="M77.88,75.48s.12-.05.1-.01c.13-.03-.26-.12-.1.01Z"/>
        <polygon class="cls-3" points="78.08 76.57 78.13 76.46 78.03 76.5 78.08 76.57"/>
        <path class="cls-3" d="M77.63,76s.05.09.07.13c.01-.02.04-.01.06,0-.06-.07-.1-.16-.13-.13Z"/>
        <path class="cls-3" d="M77.76,76.13s.06.07.09.07c-.02-.02-.06-.05-.09-.07Z"/>
        <path class="cls-3" d="M77.9,76.47l-.02-.05s-.05-.05-.07-.08c.02.05.05.09.08.13Z"/>
        <path class="cls-3" d="M76.94,74.6l-.08-.14s-.06.05-.02.1c.04.03.08.08.11.04Z"/>
        <path class="cls-3" d="M76.8,75.19c0-.05.03-.07.06-.1l-.15.05.09.05Z"/>
        <path class="cls-3" d="M76.59,74.74s-.19-.2-.12,0c.05,0,.13.15.12,0Z"/>
        <polygon class="cls-3" points="76.16 72.3 76.17 72.34 76.42 72.27 76.16 72.3"/>
        <path class="cls-3" d="M75.3,70.25c-.04.14.16.01.1.14.06.03.05-.11.11-.08-.07-.07-.05-.14-.21-.07Z"/>
        <path class="cls-3" d="M75.51,70.32s.02.02.04.04c-.02-.03-.03-.04-.04-.04Z"/>
        <polygon class="cls-3" points="74.59 47.63 74.47 47.57 74.55 47.66 74.59 47.63"/>
        <path class="cls-3" d="M74.35,47.82l-.03-.16-.07.15s.08-.02.1.02Z"/>
        <path class="cls-3" d="M73.24,63.39l.04-.02s.01-.06-.02-.11l-.02.13Z"/>
        <polygon class="cls-3" points="72.77 61.23 72.77 61.26 72.92 61.22 72.77 61.23"/>
        <path class="cls-3" d="M72.89,59.75c-.02.06,0,.13-.02.17,0-.11.2-.15.02-.17Z"/>
      </g>
      <text/>
    </g>
  </g>
</svg>